HIERARCHY
ROOT hip
{
	OFFSET 0.000000 0.000000 0.000000 
	CHANNELS 6 Xposition Yposition Zposition Xrotation Zrotation Yrotation
	JOINT abdomen
	{
		OFFSET 0.000000 3.402643 0.000000 
		CHANNELS 3 Xrotation Zrotation Yrotation
		JOINT chest
		{
			OFFSET 0.000000 8.438565 -0.680529 
			CHANNELS 3 Xrotation Zrotation Yrotation
			JOINT neck
			{
				OFFSET 0.000000 10.207942 -0.272212 
				CHANNELS 3 Xrotation Zrotation Yrotation
				JOINT head
				{
					OFFSET 0.000000 3.130431 0.000000 
					CHANNELS 3 Xrotation Zrotation Yrotation
					End Site
					{
						OFFSET 0.000000 3.130435 0.000000 
					}
				}
			}
			JOINT lCollar
			{
				OFFSET 3.470700 6.669187 -0.816635 
				CHANNELS 3 Yrotation Zrotation Xrotation
				JOINT lShldr
				{
					OFFSET 3.198488 0.000000 0.000000 
					CHANNELS 3 Zrotation Yrotation Xrotation
					JOINT lForeArm
					{
						OFFSET 10.139888 0.000000 0.000000 
						CHANNELS 3 Yrotation Zrotation Xrotation
						JOINT lHand
						{
							OFFSET 8.370511 0.000000 0.000000 
							CHANNELS 3 Zrotation Yrotation Xrotation
							End Site
							{
								OFFSET 4.083176 0.000000 0.000000 
							}
						}
					}
				}
			}
			JOINT rCollar
			{
				OFFSET -3.470700 6.669187 -0.816635 
				CHANNELS 3 Yrotation Zrotation Xrotation
				JOINT rShldr
				{
					OFFSET -3.198488 0.000000 0.000000 
					CHANNELS 3 Zrotation Yrotation Xrotation
					JOINT rForeArm
					{
						OFFSET -10.139888 0.000000 0.000000 
						CHANNELS 3 Yrotation Zrotation Xrotation
						JOINT rHand
						{
							OFFSET -8.370511 0.000000 0.000000 
							CHANNELS 3 Zrotation Yrotation Xrotation
							End Site
							{
								OFFSET -4.083176 0.000000 0.000000 
							}
						}
					}
				}
			}
		}
	}
	JOINT lThigh
	{
		OFFSET 5.308129 -1.633274 1.361059 
		CHANNELS 3 Xrotation Zrotation Yrotation
		JOINT lShin
		{
			OFFSET -2.041588 -20.007561 0.000000 
			CHANNELS 3 Xrotation Zrotation Yrotation
			JOINT lFoot
			{
				OFFSET 0.000000 -19.190928 -1.224953 
				CHANNELS 3 Xrotation Yrotation Zrotation
				End Site
				{
					OFFSET 0.000000 -2.449906 4.627600 
				}
			}
		}
	}
	JOINT rThigh
	{
		OFFSET -5.308129 -1.633274 1.361059 
		CHANNELS 3 Xrotation Zrotation Yrotation
		JOINT rShin
		{
			OFFSET 2.041588 -20.007561 0.000000 
			CHANNELS 3 Xrotation Zrotation Yrotation
			JOINT rFoot
			{
				OFFSET 0.000000 -19.190928 -1.224953 
				CHANNELS 3 Xrotation Yrotation Zrotation
				End Site
				{
					OFFSET 0.000000 -2.449906 4.627600 
				}
			}
		}
	}
}
MOTION
Frames: 9
Frame Time: 0.016667
12.961995 53.623524 -47.055248 0.732422 17.558558 -85.338860 23.865044 5.054404 -11.653270 -6.442326 -0.722026 -3.550937 50.890343 10.202230 3.118771 -61.941639 -11.946231 27.635742 1.069374 -23.436863 8.128094 -4.312456 -33.999355 -7.380620 -132.712738 1.840356 -2.415442 5.084544 14.841697 -11.124914 -12.973145 25.000000 14.681410 -0.368492 -38.424179 3.789190 111.116676 -0.865346 -2.977760 -54.871185 -65.281761 31.623529 -14.277319 7.775218 52.852169 14.205003 -5.158195 -1.644385 -0.261696 -1.658477 -8.092819 -14.674183 -9.007308 -27.262369 13.511997 5.076734 1.363990 0.146751 -5.561325 11.601615 
11.807754 53.792255 -48.079334 0.166016 18.437498 -87.783203 23.544903 3.703370 -11.475916 -6.800972 -1.076367 -3.271185 50.890343 10.202230 3.118771 -61.678944 -11.452908 28.725546 1.378040 -21.075132 8.744296 -0.692107 -34.116913 -5.406616 -132.712738 1.840356 -2.415442 5.778821 15.587695 -9.916926 -12.638274 25.000000 14.405446 -2.732169 -38.735107 10.033773 111.469131 -0.849535 -2.964562 -58.993305 -63.624039 38.300842 -14.101542 7.790859 52.684364 12.074991 -5.208535 -1.431729 -1.727195 -1.176207 -9.285055 -13.270578 -7.098315 -27.016802 9.813728 5.155829 0.984944 0.517795 -3.790309 10.737751 
11.447115 53.825993 -49.096684 -0.566406 19.140656 -90.524147 23.414953 2.292121 -11.123989 -7.150003 -1.420829 -2.991571 50.890343 10.202230 3.118771 -61.054302 -10.829641 29.561113 1.221632 -21.094166 8.621221 1.880431 -32.388664 -2.557013 -132.884125 1.982639 -2.128187 7.433078 14.519180 -8.661466 -12.061028 25.000000 14.116522 -3.375785 -38.839386 13.978075 111.997261 -0.840416 -2.910430 -63.593945 -61.470547 45.054680 -15.361270 9.728042 50.665115 13.501904 -5.226254 -1.592273 -0.516534 0.181718 -7.953479 -13.315600 -5.746272 -25.418180 7.701057 5.194167 0.772375 0.540312 -2.616450 10.943127 
11.573041 53.733189 -50.043678 -1.132813 19.316465 -93.160843 23.142014 0.811210 -10.602720 -7.489340 -1.765181 -2.702636 50.890343 10.202230 3.118771 -60.115002 -10.610511 30.014532 1.067300 -23.261251 8.118150 4.185365 -28.731287 0.169945 -132.731674 2.163395 -2.151477 8.552648 13.406748 -7.349286 -11.726432 25.000000 13.802392 -2.571005 -37.585239 15.225996 111.645172 -0.846501 -2.933518 -65.332985 -60.092228 47.694687 -17.987925 12.923356 46.629372 18.433403 -5.024634 -1.708806 1.123500 1.706245 -7.833472 -14.012258 -4.461709 -23.442791 7.341981 5.203441 0.596447 -0.361235 -2.339249 11.447279 
11.864614 53.471684 -50.878956 -1.689453 19.316404 -95.976563 23.231054 -0.724078 -9.928555 -7.662655 -2.108274 -2.416369 50.890343 10.202230 3.118771 -58.054184 -11.411669 30.739510 0.934148 -25.000000 7.677245 4.679961 -23.177601 1.802732 -130.419373 2.019761 -2.291281 9.074747 13.383387 -5.994216 -11.286678 25.000000 13.359695 0.377849 -36.684467 13.135838 109.708694 -0.879595 -3.098085 -62.620377 -60.903610 44.342918 -21.532730 16.500540 41.601540 24.428017 -4.791046 -2.575530 4.698364 4.274447 -8.374655 -15.319450 -3.640769 -21.398306 8.764853 5.153168 0.888094 -2.605626 -1.215495 11.758410 
13.006830 53.336704 -51.059212 -1.865235 18.271484 -98.818359 24.057251 -2.168079 -8.928387 -7.660123 -2.450061 -2.133196 50.890343 10.202230 3.118771 -55.468250 -12.428556 31.163349 1.174736 -25.000000 7.178173 3.031060 -16.128067 0.949385 -124.736183 1.552838 -2.659298 8.317083 16.750010 -4.820163 -10.978813 25.000000 12.893548 5.362425 -33.933620 7.167048 106.700371 -0.577215 -3.062605 -58.725201 -62.824284 38.255005 -24.853495 19.511644 35.269699 30.790804 -4.499718 -3.150196 8.904491 5.612422 -9.752949 -18.238728 -3.669785 -19.069698 14.589525 5.038790 1.293349 -2.709801 -0.776825 12.074659 
14.483679 52.754620 -50.907860 -1.660156 16.503906 -101.708984 25.110620 -3.834561 -7.331430 -7.294696 -2.964931 -1.739712 50.890343 10.202230 3.118771 -52.981178 -12.883468 30.462282 1.873596 -25.000000 7.129259 -0.272272 -8.331633 -1.781384 -116.951294 1.134719 -2.588197 6.616537 21.403683 -3.622932 -10.722378 25.000000 12.612291 9.553731 -28.879122 1.317337 104.411507 -0.624528 -3.046856 -52.982616 -64.307617 30.099022 -28.494164 21.470522 27.333326 39.065784 -4.042212 -3.459101 9.684176 7.428609 -10.124231 -22.043776 -3.873874 -16.647211 23.228895 4.749160 2.215811 -3.779698 -0.155730 12.905465 
14.980630 51.936317 -50.777107 -1.269531 14.228516 -104.726563 25.278622 -5.126441 -5.224024 -7.131147 -2.621892 -1.322206 50.890343 10.202230 3.118771 -50.280624 -12.999383 28.430714 2.317749 -25.000000 7.065217 -4.026430 -0.388653 -4.968558 -109.361877 0.748932 -2.778979 5.569351 25.445440 -2.828808 -10.136536 25.000000 12.033141 9.528317 -22.612869 -1.696990 104.244469 -0.647295 -3.037928 -48.203671 -64.749222 24.577528 -32.031185 22.851543 17.048700 48.216576 -3.633828 -4.206558 8.938661 10.104772 -9.556146 -23.387539 -3.417652 -14.108450 29.192743 4.305580 2.536232 -6.355543 0.365105 14.114704 
14.184345 51.472351 -50.787220 -0.908203 11.767579 -107.763672 23.958839 -5.850178 -2.685523 -7.491887 -1.423393 -0.514833 50.890343 10.202230 3.118771 -47.235706 -11.519001 24.528580 3.272011 -25.000000 7.731569 -7.033787 7.924170 -8.039617 -100.893753 0.359044 -2.748090 7.172342 26.593864 -1.848189 -9.342921 25.000000 11.543437 6.170284 -16.788534 -1.705713 106.535477 -0.795565 -2.975834 -44.790359 -63.990341 21.161293 -32.777767 23.783663 9.798285 52.270725 -3.490040 -4.371204 7.481611 11.348886 -8.355261 -20.676733 -2.908085 -11.475162 29.907995 4.257198 2.629871 -9.925442 1.070837 14.644680 
